<?xml version="1.0" standalone="no"?>
<!DOCTYPE svg PUBLIC "-//W3C//DTD SVG 20010904//EN"
 "http://www.w3.org/TR/2001/REC-SVG-20010904/DTD/svg10.dtd">
<svg version="1.0" xmlns="http://www.w3.org/2000/svg"
 width="1414.000000pt" height="1414.000000pt" viewBox="0 0 1414.000000 1414.000000"
 preserveAspectRatio="xMidYMid meet">
<metadata>
Created by potrace 1.14, written by Peter Selinger 2001-2017
</metadata>
<g transform="translate(0.000000,1414.000000) scale(0.100000,-0.100000)"
fill="#000000" stroke="none">
<path d="M6980 14114 c-41 -14 -97 -37 -125 -52 -51 -27 -127 -81 -133 -94 -2
-5 -10 -8 -18 -8 -8 0 -14 -3 -14 -8 0 -17 -112 -126 -133 -129 -40 -5 -164
-29 -172 -33 -3 -1 -8 -3 -12 -5 -5 -1 -21 -7 -36 -13 -16 -7 -32 -12 -37 -12
-12 0 -84 -42 -92 -55 -4 -5 -8 -6 -8 -1 0 13 -80 -62 -123 -116 -21 -26 -43
-46 -47 -43 -5 3 -16 -2 -24 -11 -9 -8 -16 -13 -16 -10 0 18 -109 -53 -163
-107 -60 -59 -123 -158 -110 -171 4 -3 2 -6 -4 -6 -5 0 -10 -6 -11 -12 -6 -61
-17 -95 -36 -107 -87 -59 -205 -217 -221 -296 -8 -42 -13 -60 -15 -60 -2 0 -3
-17 -4 -37 -1 -20 -5 -40 -8 -44 -4 -3 -3 -17 2 -30 5 -13 6 -26 0 -29 -5 -3
-5 -18 -2 -33 12 -45 8 -55 -38 -105 -25 -27 -45 -51 -45 -55 -1 -4 -9 -23
-20 -42 -24 -45 -28 -164 -8 -240 15 -62 101 -240 114 -240 5 0 9 -7 9 -15 0
-8 5 -15 10 -15 6 0 10 -5 10 -11 0 -5 13 -27 29 -47 25 -32 41 -67 59 -132
12 -40 13 -140 2 -194 -7 -35 -26 -82 -47 -115 -31 -49 -52 -72 -123 -136 -27
-24 -132 -68 -194 -81 -61 -13 -280 -12 -346 1 -55 11 -65 13 -70 15 -3 1 -8
2 -11 2 -4 -1 -22 3 -40 9 -19 6 -45 12 -58 15 -13 3 -40 12 -60 20 -20 9 -43
17 -51 19 -68 15 -551 258 -571 288 -3 5 -16 -4 -28 -20 -11 -15 -25 -33 -30
-39 -4 -5 -14 -21 -21 -35 -7 -13 -16 -26 -19 -29 -4 -3 -20 -26 -36 -52 -17
-27 -33 -48 -37 -48 -5 0 -8 -7 -8 -15 0 -8 -4 -15 -10 -15 -5 0 -10 -7 -10
-15 0 -8 -4 -15 -10 -15 -5 0 -10 -7 -10 -15 0 -8 -4 -15 -10 -15 -5 0 -10 -4
-10 -10 0 -10 -89 -142 -103 -151 -5 -3 -7 -9 -5 -12 1 -4 -4 -14 -12 -24 -8
-10 -29 -39 -45 -65 -17 -27 -33 -48 -37 -48 -5 0 -8 -5 -8 -11 0 -9 -56 -96
-71 -109 -3 -3 -16 -23 -29 -45 -13 -22 -30 -46 -37 -53 -7 -7 -13 -17 -13
-22 0 -5 -6 -15 -12 -22 -24 -25 -58 -77 -58 -88 0 -5 -4 -10 -8 -10 -5 0 -15
-12 -23 -27 -8 -16 -16 -30 -19 -33 -10 -9 -205 -299 -220 -327 -8 -16 -21
-32 -27 -36 -16 -10 -16 -32 0 -49 18 -20 37 -50 43 -70 4 -10 9 -18 13 -18 4
0 18 -19 31 -42 13 -24 41 -69 62 -100 21 -31 38 -62 38 -67 0 -6 5 -11 11
-11 5 0 7 -4 4 -10 -3 -5 -2 -10 4 -10 5 0 13 -10 17 -22 4 -13 10 -25 14 -28
20 -14 184 -339 235 -465 20 -49 40 -99 45 -110 26 -60 81 -264 84 -312 0 -13
3 -23 7 -23 3 0 6 -10 6 -22 1 -13 4 -36 7 -53 20 -111 29 -204 30 -317 1 -49
5 -88 9 -88 5 0 5 -4 2 -10 -3 -5 -8 -69 -11 -142 -3 -73 -7 -150 -7 -170 -1
-21 -4 -38 -7 -38 -3 0 -6 -17 -7 -38 -3 -67 -8 -112 -13 -112 -3 0 -5 -15 -6
-33 0 -17 -4 -50 -7 -72 -4 -22 -9 -53 -12 -70 -14 -89 -18 -114 -71 -375 -48
-240 -51 -251 -59 -290 -4 -14 -8 -35 -10 -46 -13 -60 -47 -222 -51 -239 -12
-62 -25 -124 -29 -146 -3 -13 -7 -35 -10 -49 -11 -55 -19 -96 -20 -110 -1 -8
-5 -26 -9 -40 -3 -14 -8 -38 -10 -55 -3 -16 -7 -41 -10 -55 -4 -23 -8 -45 -22
-145 -2 -16 -6 -48 -9 -70 -2 -22 -6 -56 -9 -75 -5 -41 -17 -187 -22 -280 -5
-94 -5 -333 1 -420 12 -192 15 -227 20 -250 9 -42 14 -73 20 -119 3 -23 8 -47
11 -53 3 -5 7 -19 9 -31 2 -12 6 -33 9 -47 3 -14 8 -35 10 -48 3 -12 7 -26 10
-30 3 -5 7 -19 9 -33 6 -33 77 -242 87 -254 7 -10 20 -55 16 -55 -4 0 -49 41
-116 105 -62 59 -105 106 -170 185 -25 30 -48 57 -52 58 -5 2 -8 9 -8 16 0 7
-8 21 -19 32 -45 49 -245 415 -251 459 0 6 -7 19 -14 30 -7 11 -23 49 -36 85
-35 98 -66 124 -108 91 -21 -16 -31 -49 -37 -126 -2 -22 -4 -40 -5 -40 -3 0
-9 -42 -15 -104 -4 -36 -8 -68 -10 -71 -1 -3 -6 -41 -9 -86 -4 -44 -8 -90 -10
-101 -2 -11 -7 -46 -10 -78 -4 -32 -9 -72 -11 -89 -3 -17 -7 -44 -9 -61 -6
-54 -18 -85 -28 -78 -19 11 -384 18 -411 8 -25 -10 -31 -48 -13 -81 21 -38 40
-68 46 -74 3 -3 19 -25 35 -50 17 -25 35 -51 42 -57 6 -7 21 -29 34 -50 13
-21 25 -40 29 -43 3 -3 34 -43 69 -90 35 -47 68 -87 73 -88 4 -2 8 -8 8 -13 0
-5 11 -22 24 -37 43 -48 60 -69 86 -102 13 -17 33 -42 45 -54 82 -91 86 -98
77 -109 -6 -7 -11 -15 -11 -20 -2 -17 -127 -266 -155 -307 -37 -54 -40 -62
-42 -120 -3 -79 21 -111 191 -257 132 -114 130 -113 230 -188 44 -33 85 -63
90 -68 65 -49 103 -75 107 -72 2 2 9 -4 15 -14 9 -14 0 -39 -47 -134 -32 -64
-55 -117 -53 -117 3 0 0 -6 -6 -13 -6 -8 -8 -17 -4 -20 3 -4 2 -7 -4 -7 -10 0
-18 -25 -31 -90 -7 -36 -6 -141 1 -169 13 -49 115 -169 131 -154 3 4 6 1 6 -6
0 -7 14 -17 30 -22 17 -6 30 -15 30 -20 0 -5 6 -9 13 -9 7 0 39 -13 70 -29 31
-16 57 -28 57 -26 0 2 36 -14 80 -36 44 -21 82 -39 84 -39 14 0 708 -336 874
-424 56 -29 102 -51 102 -47 0 3 4 1 8 -5 4 -5 43 -29 87 -51 44 -23 100 -53
125 -67 25 -14 65 -36 90 -49 25 -13 62 -34 82 -46 21 -11 53 -29 70 -40 18
-10 53 -30 78 -45 25 -15 53 -29 62 -33 10 -3 18 -9 18 -14 0 -5 5 -9 11 -9
13 0 183 -102 187 -112 2 -5 7 -8 12 -8 5 0 69 -38 142 -84 73 -47 202 -127
287 -178 85 -51 170 -103 190 -115 20 -13 43 -26 51 -30 8 -5 59 -34 112 -65
53 -32 100 -58 103 -58 4 0 19 -9 33 -19 15 -10 30 -19 34 -20 4 -1 52 -23
105 -48 54 -26 100 -48 103 -48 3 -1 18 -7 33 -13 16 -7 31 -12 34 -12 3 0 19
-6 36 -14 46 -21 255 -81 270 -78 5 2 27 -3 50 -9 54 -15 313 -20 392 -8 86
13 107 17 135 24 14 3 36 8 50 11 14 3 68 19 120 37 52 17 98 30 103 29 4 -1
7 3 7 8 0 6 7 10 15 10 8 0 23 5 33 10 16 9 111 52 122 55 28 7 374 198 390
215 4 4 37 23 95 54 11 6 22 14 25 17 3 3 28 19 55 34 28 16 53 33 56 38 3 5
8 7 10 6 5 -3 10 0 172 102 65 41 130 80 145 88 15 8 29 17 32 21 3 3 46 30
95 60 50 29 98 60 108 68 9 8 17 11 17 7 0 -4 8 -1 18 7 23 20 160 99 168 97
4 0 10 3 13 8 7 9 68 45 121 71 19 9 37 20 40 23 3 4 39 23 80 44 41 21 77 40
80 44 3 3 88 48 190 100 102 52 227 116 278 142 51 26 95 48 97 48 3 1 29 13
58 28 28 15 54 27 57 28 3 0 12 5 20 10 8 5 21 10 28 11 8 2 22 10 33 20 10 9
19 14 19 10 0 -3 28 8 63 26 34 18 64 32 67 33 3 0 54 24 114 53 59 28 110 52
112 52 2 0 39 17 81 37 43 20 80 37 83 38 3 0 19 9 37 18 18 9 39 17 48 17 8
0 15 4 15 9 0 5 11 12 25 15 14 4 25 11 25 17 0 6 4 8 9 5 5 -4 35 15 66 40
57 47 105 111 108 145 1 10 4 19 8 19 8 0 4 154 -5 169 -4 6 -10 23 -12 38 -3
15 -9 32 -13 38 -5 5 -16 31 -26 58 -10 26 -22 47 -28 47 -6 0 -8 3 -4 6 3 4
-12 42 -35 86 -22 44 -38 80 -37 82 2 1 28 19 57 39 28 20 56 37 61 37 5 0 11
3 13 8 2 4 32 30 68 57 35 28 73 57 84 65 10 8 27 23 38 33 10 9 22 17 27 17
5 0 12 7 15 16 4 9 9 14 12 11 3 -2 15 5 28 17 12 11 66 61 119 109 137 126
158 195 90 303 -51 84 -83 144 -76 144 5 0 3 4 -2 8 -12 9 -55 95 -55 111 0 6
-4 11 -9 11 -5 0 -16 19 -23 42 l-14 42 94 111 c51 60 104 122 118 138 13 15
24 31 24 36 0 5 3 11 8 13 7 3 49 56 152 193 16 22 34 46 40 53 6 6 8 12 5 12
-3 0 6 12 20 28 14 15 28 35 31 45 3 9 10 17 15 17 5 0 9 7 9 15 0 8 5 15 10
15 6 0 10 4 10 10 0 5 11 26 25 46 30 44 31 65 6 89 -21 18 -49 19 -329 11
-56 -2 -104 0 -106 3 -6 10 -22 124 -32 226 -1 17 -3 30 -4 30 -1 0 -3 14 -5
30 -10 91 -14 115 -21 126 -5 8 -3 9 6 4 8 -5 11 -4 6 3 -3 6 -9 32 -12 57 -3
26 -7 61 -9 79 -3 17 -7 54 -10 81 -7 56 -13 90 -15 90 -1 0 -3 17 -4 38 -4
47 -31 74 -68 69 -23 -4 -31 -15 -59 -81 -17 -42 -38 -92 -47 -111 -8 -19 -16
-37 -17 -40 -1 -3 -16 -35 -33 -73 -18 -37 -32 -72 -32 -76 0 -5 -4 -11 -8
-13 -4 -1 -21 -28 -36 -58 -26 -51 -91 -162 -108 -185 -4 -5 -35 -47 -67 -92
-33 -44 -80 -103 -106 -129 -25 -27 -59 -62 -74 -79 -40 -42 -123 -120 -138
-129 -14 -8 -11 6 12 59 27 60 54 148 50 156 -3 4 -1 10 5 14 9 5 29 64 37
110 2 11 9 38 15 60 6 22 12 48 14 58 1 9 2 18 4 20 2 3 6 22 14 62 3 17 8 46
12 65 4 19 8 53 9 75 2 22 4 40 5 40 1 0 3 20 5 45 2 25 4 45 5 45 3 0 11 243
10 330 -1 108 -15 410 -20 410 -1 0 -3 23 -5 50 -2 28 -6 66 -9 85 -11 74 -20
155 -18 163 1 4 -1 7 -5 7 -5 0 -8 15 -7 33 0 17 -2 37 -5 42 -3 6 -7 19 -8
30 -1 11 -6 36 -9 55 -4 19 -8 40 -9 45 -1 6 -3 12 -4 15 -2 3 -4 14 -6 25
-12 82 -28 171 -41 225 -9 41 -25 113 -30 138 -10 55 -14 71 -29 137 -9 39
-18 84 -21 100 -5 26 -29 142 -39 185 -6 27 -44 224 -50 255 -2 17 -8 44 -11
60 -4 17 -8 41 -10 55 -1 14 -3 25 -4 25 -2 0 -7 24 -15 90 -4 33 -10 71 -12
85 -2 14 -6 43 -8 65 -2 22 -4 40 -5 40 -2 0 -7 44 -14 121 -2 23 -7 47 -10
53 -4 6 -2 11 5 11 8 0 8 4 2 13 -6 7 -9 95 -7 227 4 229 8 298 28 410 16 90
28 146 33 160 3 8 7 24 8 35 2 11 11 46 20 78 9 31 16 59 15 62 0 3 7 19 15
35 9 17 13 30 11 30 -3 0 4 21 15 48 11 26 24 56 29 67 52 123 142 309 153
313 4 2 5 8 1 13 -3 5 -1 9 4 9 6 0 13 11 16 24 3 14 12 31 19 38 6 7 22 33
35 58 12 25 67 115 122 200 55 85 103 162 107 170 4 8 13 21 20 28 7 7 13 17
13 22 0 10 -70 113 -84 122 -6 4 -8 8 -4 8 7 0 -136 216 -152 230 -3 3 -11 17
-19 32 -8 15 -21 36 -30 45 -9 10 -22 30 -30 46 -8 15 -18 27 -23 27 -4 0 -8
4 -8 9 0 7 -100 161 -127 196 -5 6 -62 91 -128 190 -66 99 -122 182 -125 185
-3 3 -28 39 -55 80 -26 41 -52 76 -57 78 -4 2 -8 8 -8 13 0 9 -36 65 -50 79
-7 7 -28 41 -42 68 -6 12 -15 22 -21 22 -5 0 -39 -17 -75 -37 -37 -20 -103
-55 -147 -78 -44 -23 -89 -46 -100 -53 -29 -17 -169 -80 -175 -79 -3 1 -21 -7
-40 -17 -71 -38 -73 -38 -64 -24 4 7 -2 4 -14 -6 -12 -11 -22 -16 -22 -12 0 3
-16 0 -35 -8 -20 -9 -38 -15 -40 -16 -3 0 -6 0 -7 -1 -15 -4 -131 -28 -178
-36 -68 -12 -351 -6 -367 7 -2 2 -6 3 -10 4 -5 1 -25 10 -47 19 -21 9 -42 17
-47 17 -5 0 -9 5 -9 10 0 6 -6 10 -12 10 -19 0 -110 88 -146 141 -93 137 -76
369 35 489 13 14 23 30 23 37 0 7 3 13 8 13 4 0 19 21 32 48 14 26 29 50 33
53 5 3 8 8 7 10 -1 2 3 15 8 29 13 31 25 62 27 73 2 4 3 8 5 10 8 10 12 55 13
132 1 79 -2 96 -25 140 -15 28 -43 67 -63 87 l-36 37 -1 113 c0 66 -6 128 -14
151 -7 20 -13 40 -13 42 0 3 -10 27 -21 52 -30 69 -105 162 -167 210 -30 23
-54 45 -53 50 3 18 -12 79 -22 91 -6 6 -7 12 -3 12 15 0 -60 117 -104 162 -53
53 -148 114 -203 129 -21 5 -38 15 -38 22 0 23 -118 131 -182 167 -71 41 -166
71 -268 85 -19 3 -42 6 -50 8 -9 1 -56 43 -105 92 -98 98 -190 158 -295 192
-108 35 -128 36 -210 7z m141 -95 c19 -6 70 -28 115 -49 79 -39 172 -118 249
-212 26 -31 37 -38 80 -42 71 -7 133 -18 178 -32 29 -8 141 -57 147 -64 3 -3
24 -22 47 -42 23 -20 39 -39 35 -42 -3 -3 0 -6 6 -6 7 0 20 -15 28 -34 13 -25
27 -37 58 -46 154 -46 278 -180 291 -316 6 -52 20 -84 39 -84 7 0 45 -30 84
-67 125 -121 165 -252 137 -455 l-7 -57 44 -27 c93 -56 120 -149 82 -284 -9
-30 -21 -61 -26 -67 -6 -7 -7 -13 -4 -13 4 0 -2 -13 -13 -29 -12 -16 -21 -32
-21 -35 0 -6 -42 -68 -95 -141 -19 -26 -47 -85 -51 -107 -1 -5 -2 -9 -4 -10
-3 -4 -9 -29 -19 -78 -11 -53 -7 -173 7 -217 6 -18 9 -33 7 -33 -2 0 12 -32
32 -71 34 -68 138 -189 162 -189 6 0 11 -4 11 -8 0 -11 104 -66 164 -86 120
-41 359 -41 532 0 38 9 76 17 84 19 8 2 26 8 40 13 14 5 27 10 30 10 6 1 33
11 95 35 28 10 55 20 60 22 6 1 30 12 55 23 25 12 50 22 57 22 6 0 13 3 15 8
3 6 302 162 311 162 3 0 28 -37 58 -82 29 -46 55 -85 58 -88 8 -7 85 -122 90
-135 2 -5 12 -17 21 -27 9 -10 23 -31 31 -46 8 -15 17 -29 20 -32 13 -12 149
-218 149 -226 0 -5 9 -16 20 -24 11 -8 20 -18 20 -22 0 -9 123 -192 133 -196
4 -2 7 -10 7 -17 0 -7 3 -15 8 -17 10 -4 52 -65 52 -76 0 -5 9 -17 20 -27 11
-10 20 -24 20 -31 0 -7 3 -14 8 -16 10 -5 52 -66 52 -77 0 -5 3 -11 8 -13 10
-4 92 -125 92 -135 0 -4 -19 -37 -43 -73 -50 -77 -147 -235 -207 -338 -41 -72
-180 -346 -180 -356 0 -3 -11 -29 -24 -58 -35 -80 -106 -294 -120 -363 -32
-159 -46 -236 -48 -262 -1 -18 -5 -33 -8 -33 -10 0 -15 -493 -6 -595 14 -144
26 -234 36 -272 4 -17 6 -33 4 -36 -2 -2 3 -39 11 -82 9 -43 13 -80 10 -83 -2
-2 0 -12 4 -21 5 -9 12 -38 15 -65 4 -27 9 -52 11 -55 1 -3 6 -22 9 -41 9 -54
20 -110 29 -155 11 -48 21 -111 19 -117 -1 -5 1 -8 5 -8 5 0 9 -10 10 -22 1
-13 4 -34 7 -48 3 -14 8 -41 11 -60 3 -19 9 -42 12 -50 3 -8 7 -24 9 -35 3
-24 5 -32 39 -195 15 -69 29 -138 31 -155 3 -16 9 -46 14 -65 5 -20 12 -53 14
-74 3 -21 8 -46 10 -55 3 -9 7 -32 10 -51 3 -19 8 -48 12 -65 3 -16 7 -41 9
-55 2 -14 4 -25 5 -25 1 0 3 -13 5 -30 5 -45 14 -120 20 -157 3 -18 7 -67 10
-108 3 -41 8 -104 11 -140 8 -98 8 -423 0 -520 -4 -47 -8 -106 -10 -132 -2
-26 -7 -59 -10 -75 -3 -15 -8 -44 -12 -63 -3 -19 -7 -39 -8 -45 -2 -5 -6 -28
-10 -50 -9 -47 -64 -251 -76 -280 -5 -11 -18 -47 -30 -80 -26 -74 -40 -105
-97 -221 -42 -85 -49 -94 -120 -145 -41 -29 -81 -62 -89 -73 -8 -11 -14 -16
-14 -11 0 5 -13 -9 -29 -31 -48 -65 -69 -147 -47 -183 4 -5 -5 -23 -19 -39
-14 -16 -25 -32 -25 -35 0 -10 -197 -206 -260 -258 -36 -30 -70 -58 -76 -64
-6 -5 -26 -21 -44 -35 -18 -14 -39 -31 -46 -38 -7 -6 -15 -12 -18 -12 -3 0
-32 -20 -65 -45 -32 -25 -64 -45 -69 -45 -6 0 -12 -3 -14 -8 -1 -4 -39 -30
-83 -57 -44 -28 -89 -56 -100 -63 -11 -6 -36 -20 -55 -30 -19 -9 -37 -19 -40
-22 -3 -4 -41 -24 -85 -45 -44 -22 -82 -42 -85 -45 -3 -3 -24 -12 -47 -20 -24
-7 -43 -16 -43 -20 0 -4 -6 -7 -12 -7 -7 0 -49 -15 -92 -33 -134 -54 -554
-200 -578 -200 -4 0 -19 -5 -35 -12 -15 -6 -32 -12 -38 -13 -5 -2 -50 -15
-100 -31 -49 -15 -98 -29 -107 -30 -10 -1 -24 -7 -33 -14 -8 -7 -15 -10 -15
-7 0 4 -19 -1 -42 -9 -50 -18 -53 -19 -95 -29 -18 -4 -33 -12 -33 -18 0 -6 -3
-8 -6 -4 -6 6 -145 -40 -211 -69 -17 -8 -36 -14 -41 -14 -13 0 -110 -46 -187
-90 -68 -38 -80 -45 -93 -58 -7 -6 -22 -17 -32 -22 -23 -13 -94 -76 -175 -157
l-61 -62 -55 57 c-74 78 -192 182 -207 182 -4 0 -25 14 -46 30 -22 17 -46 30
-53 30 -7 0 -13 5 -13 10 0 6 -9 10 -19 10 -11 0 -21 4 -23 8 -6 14 -326 141
-398 157 -8 2 -54 17 -102 33 -49 17 -88 28 -88 25 0 -3 -6 -1 -12 4 -11 9
-39 18 -83 28 -5 2 -48 15 -95 30 -47 16 -87 28 -90 28 -23 1 -509 171 -635
222 -11 5 -22 9 -25 10 -59 20 -227 103 -350 173 -125 71 -323 200 -328 213
-2 5 -10 9 -18 9 -8 0 -14 4 -14 9 0 5 -8 12 -17 15 -10 4 -36 22 -58 41 -22
19 -45 38 -50 43 -86 63 -261 232 -341 328 -33 39 -40 54 -34 74 22 87 -34
178 -178 285 -75 56 -122 114 -122 150 0 7 -7 16 -16 19 -9 4 -14 9 -11 13 4
3 -2 22 -12 42 -38 72 -120 299 -135 372 -3 13 -9 39 -15 57 -5 18 -9 33 -9
35 1 1 -4 25 -10 52 -7 28 -14 64 -16 80 -2 17 -5 30 -6 30 -3 0 -10 67 -13
117 -1 27 -4 48 -7 48 -3 0 -6 30 -7 68 -1 37 -3 81 -6 97 -2 17 1 36 6 43 5
6 5 12 0 12 -10 0 -11 255 -1 266 4 4 3 14 -2 24 -5 10 -6 20 -3 24 4 3 7 38
9 77 2 67 8 135 19 234 3 22 7 56 9 75 7 59 26 173 51 310 8 41 17 89 20 105
3 17 10 50 15 75 5 25 12 56 14 70 3 14 14 69 25 124 29 136 30 142 37 174 3
15 10 45 15 67 5 22 12 54 14 70 7 40 13 70 15 70 2 0 9 35 26 125 3 19 10 43
15 53 7 11 6 17 -1 17 -7 0 -8 6 -2 18 5 9 12 33 16 52 3 19 8 46 11 60 3 14
8 39 11 55 4 17 8 41 9 55 2 14 4 25 5 25 1 0 3 9 4 20 2 11 6 43 10 70 8 55
14 90 16 90 1 0 3 14 4 30 10 91 19 162 22 180 16 76 22 474 9 595 -8 79 -17
153 -20 170 -1 8 -6 33 -9 54 -4 21 -8 48 -11 60 -3 12 -7 32 -9 46 -5 23 -7
35 -20 88 -3 9 -11 38 -19 65 -8 26 -13 47 -10 47 3 0 0 7 -7 15 -7 8 -9 15
-6 15 4 0 1 10 -6 23 -7 12 -11 28 -10 35 2 6 -2 12 -8 12 -5 0 -9 3 -8 8 2 6
-6 31 -32 97 -34 86 -183 387 -211 427 -11 14 -19 29 -19 33 0 3 -52 89 -115
190 -110 175 -121 203 -95 225 3 3 28 39 55 80 28 41 53 77 58 78 4 2 7 8 7
13 0 9 56 94 78 117 6 7 12 17 12 22 0 5 6 15 13 22 6 7 63 90 126 183 63 94
118 172 123 173 4 2 6 8 2 13 -3 5 2 12 10 15 9 3 16 12 16 20 0 8 9 23 20 34
11 11 17 20 13 20 -5 0 -3 4 2 8 6 4 37 48 70 97 33 50 62 92 65 95 13 12 80
121 80 130 0 5 4 10 9 10 4 0 25 27 45 60 36 58 52 70 72 51 17 -17 321 -171
338 -171 9 0 16 -4 16 -10 0 -5 8 -10 18 -10 10 0 23 -5 29 -11 6 -6 17 -12
24 -13 8 -2 21 -6 29 -9 104 -41 256 -85 304 -89 14 -1 26 -5 26 -8 0 -12 268
-18 360 -7 62 7 144 33 210 68 58 30 61 33 137 108 105 105 155 234 148 381
-5 85 -7 100 -19 118 -4 7 -6 16 -3 18 7 8 -58 136 -82 161 -12 12 -21 24 -21
27 0 3 -12 22 -26 43 -33 49 -71 123 -76 148 -1 11 -6 22 -10 25 -13 10 -29
140 -18 140 4 0 6 10 5 22 -3 43 35 96 96 134 42 27 45 31 37 59 -11 42 -14
171 -4 230 14 85 59 169 129 240 35 35 66 62 69 60 3 -3 16 5 30 18 18 17 27
38 32 78 18 138 135 274 267 309 39 11 95 40 76 40 -15 0 55 85 99 120 44 35
124 74 177 86 9 2 27 6 40 9 45 11 92 18 110 17 9 0 17 3 17 7 0 4 13 6 28 3
24 -3 34 3 62 40 53 68 157 163 212 193 50 28 172 74 194 75 6 0 26 -5 45 -11z
m-4011 -9916 c71 -41 156 -107 245 -190 25 -22 45 -39 45 -37 0 2 25 -20 55
-48 70 -65 107 -90 168 -113 26 -10 47 -21 47 -26 0 -5 -11 -28 -25 -51 -14
-24 -28 -51 -32 -61 -6 -20 -31 -16 -73 13 -14 10 -70 47 -125 82 -55 35 -107
71 -115 79 -8 8 -31 25 -50 39 -32 22 -153 124 -190 160 -54 54 -92 119 -95
165 -2 34 77 27 145 -12z m8063 31 c33 -12 -7 -107 -71 -170 -80 -78 -132
-122 -230 -194 -59 -44 -115 -86 -124 -95 -10 -8 -18 -13 -18 -9 0 3 -15 -6
-33 -20 -19 -15 -39 -26 -45 -26 -6 0 -12 -3 -14 -7 -6 -14 -92 -57 -95 -47
-2 5 -10 20 -18 34 -45 80 -51 110 -19 110 32 0 117 53 196 122 46 40 85 76
88 79 3 3 34 30 70 60 36 29 67 57 68 61 2 4 8 8 13 8 5 0 30 15 56 33 83 57
138 76 176 61z m-7197 -591 c23 -24 39 -43 37 -43 -3 0 7 -10 23 -22 16 -13
43 -36 60 -53 36 -35 118 -103 148 -125 12 -8 32 -25 46 -37 14 -13 33 -26 43
-29 9 -3 17 -10 17 -15 0 -5 11 -14 25 -19 14 -5 25 -14 25 -20 0 -5 4 -10 10
-10 11 0 103 -62 108 -72 2 -5 7 -8 12 -8 4 0 54 -29 111 -65 57 -36 110 -65
117 -65 6 0 12 -5 12 -12 0 -6 3 -8 6 -5 4 4 19 -2 33 -12 45 -31 217 -110
359 -165 75 -29 146 -57 157 -61 11 -5 22 -9 25 -10 25 -6 89 -28 105 -36 12
-6 27 -11 35 -13 12 -1 172 -51 330 -102 8 -3 15 -5 15 -4 0 1 18 -5 40 -13
22 -8 101 -34 175 -57 74 -23 171 -55 215 -70 44 -16 100 -35 125 -43 25 -9
61 -22 80 -30 64 -26 75 -30 80 -32 13 -3 106 -50 110 -54 3 -4 16 -12 30 -19
72 -37 197 -145 317 -276 33 -36 64 -66 68 -66 4 0 20 15 37 33 119 128 242
247 257 247 5 0 11 4 13 8 5 13 156 102 172 102 7 0 19 7 26 15 7 8 20 15 29
15 9 0 30 7 46 16 17 9 37 17 45 19 8 2 29 9 45 16 17 7 32 13 35 14 3 0 70
23 150 49 80 26 231 75 335 107 105 33 196 61 203 64 7 2 13 4 15 4 1 -1 20 6
42 14 22 8 81 28 130 43 50 16 93 33 96 37 3 5 9 8 13 7 4 -1 17 1 29 5 12 4
27 8 32 10 24 6 252 96 267 105 10 5 25 10 33 10 8 0 15 5 15 10 0 6 6 10 14
10 16 0 257 123 298 151 14 11 29 19 32 19 3 0 52 30 108 68 57 37 107 69 113
71 10 4 25 16 54 41 9 8 28 21 42 28 14 7 39 26 57 43 17 16 34 29 37 29 4 0
19 12 34 28 16 15 46 40 67 57 41 30 222 210 285 282 44 50 66 49 94 -5 10
-20 26 -45 34 -54 8 -10 10 -18 5 -18 -5 0 -4 -4 1 -8 13 -9 35 -49 35 -63 0
-10 -273 -146 -330 -164 -39 -12 -90 -40 -90 -48 0 -6 -3 -7 -6 -4 -10 10 -93
-52 -165 -123 -62 -62 -125 -163 -113 -182 3 -4 1 -8 -4 -8 -16 0 7 -93 29
-116 12 -12 34 -28 50 -34 22 -9 47 -44 104 -142 42 -72 74 -132 73 -133 -5
-4 -162 -79 -168 -80 -6 -2 -94 -43 -248 -116 -67 -33 -127 -59 -132 -59 -6 0
-10 -4 -10 -10 0 -5 -9 -10 -19 -10 -11 0 -21 -3 -23 -7 -1 -5 -28 -21 -58
-36 -91 -47 -155 -82 -160 -87 -3 -3 -25 -16 -50 -29 -50 -27 -320 -192 -362
-222 -15 -10 -29 -19 -32 -19 -3 0 -33 -20 -68 -43 -35 -24 -68 -46 -73 -48
-6 -2 -55 -34 -110 -70 -55 -36 -147 -94 -205 -129 -58 -35 -107 -67 -110 -70
-3 -3 -16 -11 -30 -18 -14 -7 -46 -25 -72 -41 -25 -16 -66 -40 -90 -54 -23
-13 -61 -34 -83 -47 -74 -42 -233 -120 -244 -120 -6 0 -11 -5 -11 -12 0 -6 -3
-9 -6 -5 -3 3 -35 -8 -70 -23 -35 -16 -64 -28 -64 -25 0 2 -29 -7 -65 -20 -36
-13 -65 -22 -65 -20 0 3 -12 0 -26 -5 -14 -6 -42 -12 -62 -15 -20 -3 -57 -8
-82 -12 -97 -15 -256 -5 -372 22 -32 7 -59 13 -61 14 -49 4 -386 143 -395 164
-2 4 -10 7 -17 7 -11 0 -158 79 -205 110 -8 6 -26 16 -40 22 -14 7 -27 15 -30
18 -3 3 -16 11 -30 18 -26 13 -39 20 -107 65 -23 15 -44 27 -46 27 -5 0 -347
216 -422 266 -28 19 -54 34 -58 34 -4 0 -17 8 -28 18 -10 11 -32 25 -47 33
-15 7 -47 27 -72 44 -25 16 -47 30 -50 30 -3 0 -25 14 -50 30 -49 31 -226 136
-250 148 -8 5 -46 26 -85 47 -98 56 -502 254 -533 262 -8 2 -145 69 -150 73
-2 2 9 23 24 46 15 24 27 50 27 56 0 7 4 13 8 13 4 0 14 12 22 28 50 96 64
115 99 133 119 61 101 197 -48 346 -40 40 -75 73 -78 73 -4 0 -29 16 -56 35
-28 19 -50 33 -50 31 0 -6 -294 128 -337 154 -19 11 -40 20 -47 20 -21 0 -15
30 18 89 17 31 37 68 45 83 23 45 50 40 106 -22 28 -30 69 -74 91 -97z m-353
-503 c93 -31 309 -129 315 -142 2 -5 10 -8 18 -8 8 0 33 -9 54 -20 22 -11 40
-18 40 -14 0 4 7 1 15 -6 8 -7 15 -10 15 -6 0 4 12 0 28 -7 15 -7 35 -12 45
-10 28 7 20 -19 -28 -99 -25 -42 -45 -80 -45 -87 0 -6 -4 -11 -10 -11 -5 0
-10 -7 -10 -15 0 -19 -2 -19 -53 4 -23 10 -64 29 -92 41 -160 72 -243 114
-305 155 -161 107 -273 243 -212 258 40 10 139 -5 225 -33z m7144 27 c27 -28
-90 -159 -219 -245 -42 -28 -125 -74 -185 -102 -59 -28 -116 -55 -125 -60 -10
-6 -23 -10 -30 -10 -6 0 -19 -7 -28 -15 -10 -9 -26 -17 -36 -19 -11 -3 -26 -7
-35 -11 -11 -4 -18 0 -22 12 -4 10 -15 32 -24 48 -79 131 -96 168 -75 163 13
-3 77 14 90 24 6 6 12 8 12 4 0 -3 15 0 34 8 19 8 37 12 40 8 3 -3 6 0 6 6 0
7 4 12 10 12 5 0 62 26 127 58 100 49 184 81 313 121 28 8 137 7 147 -2z"/>
<path d="M7006 13860 c-98 -41 -210 -143 -272 -247 l-29 -48 -120 0 c-89 0
-135 -5 -177 -18 -32 -11 -58 -23 -58 -28 0 -5 -6 -9 -13 -9 -24 0 -147 -115
-147 -137 0 -7 -5 -13 -10 -13 -6 0 -15 -11 -21 -24 -9 -20 -80 -59 -110 -61
-3 0 -19 -10 -35 -23 -16 -13 -34 -26 -40 -30 -43 -27 -100 -147 -108 -227 -2
-22 -5 -43 -5 -47 -1 -4 -25 -31 -54 -60 -57 -58 -103 -118 -90 -118 4 0 2 -4
-5 -8 -27 -17 -40 -127 -28 -231 4 -41 2 -46 -43 -91 -65 -65 -85 -110 -85
-190 0 -52 7 -78 32 -130 40 -84 73 -141 93 -160 8 -8 18 -22 22 -30 4 -8 21
-37 37 -65 16 -27 33 -57 36 -65 3 -8 14 -34 25 -56 10 -23 21 -55 25 -70 4
-16 9 -33 13 -39 9 -16 17 -83 20 -166 1 -15 98 -17 1211 -17 763 1 1213 4
1216 10 4 6 8 38 10 73 4 73 43 202 85 278 6 10 20 37 32 60 11 23 24 44 27
47 7 5 49 65 65 91 17 27 59 104 60 109 1 3 4 12 8 20 30 75 28 170 -6 229
-12 20 -40 54 -63 76 -37 35 -41 45 -38 75 20 166 -8 252 -119 363 -48 48 -53
59 -64 119 -25 151 -97 240 -235 293 -27 10 -50 26 -53 36 -4 11 -11 19 -16
19 -5 0 -9 5 -9 11 0 16 -89 107 -135 139 -74 51 -141 67 -270 68 l-117 0 -44
63 c-54 78 -116 143 -167 176 -117 74 -157 83 -231 53z"/>
<path d="M5887 11304 c-4 -4 -20 -7 -36 -6 -23 0 -37 -9 -64 -41 -40 -48 -108
-118 -158 -162 -73 -64 -238 -163 -261 -157 -5 1 -8 -2 -8 -7 0 -7 -22 -14
-68 -22 -4 0 -15 -5 -25 -11 -10 -5 -28 -11 -40 -14 -12 -2 -35 -7 -52 -10
-16 -4 -45 -8 -63 -9 -18 -2 -36 -5 -39 -9 -3 -3 -14 -1 -24 5 -11 5 -19 6
-19 2 0 -5 -28 -8 -62 -7 -35 1 -63 3 -63 4 0 1 -20 3 -45 5 -25 2 -58 6 -75
9 -117 21 -128 23 -135 27 -3 1 -9 3 -15 4 -5 1 -17 5 -25 8 -8 3 -46 15 -85
28 -38 12 -89 30 -112 40 -24 11 -64 28 -90 40 -64 28 -151 72 -227 114 l-61
34 -45 -69 c-25 -38 -48 -70 -52 -70 -5 0 -8 -5 -8 -10 0 -12 -41 -73 -52 -78
-5 -2 -8 -8 -8 -14 0 -6 -12 -27 -27 -47 -16 -20 -32 -44 -38 -53 -25 -40
-191 -284 -202 -296 -7 -7 -13 -19 -13 -27 0 -7 -7 -15 -15 -19 -8 -3 -15 -12
-15 -20 0 -8 -3 -16 -7 -18 -5 -1 -53 -70 -108 -153 -55 -82 -104 -153 -110
-157 -5 -4 -6 -8 -2 -8 5 0 1 -7 -7 -16 -11 -11 -13 -19 -5 -27 61 -70 325
-537 312 -551 -4 -3 -1 -6 6 -6 7 0 9 -4 6 -10 -3 -5 -1 -10 4 -10 6 0 11 -6
11 -12 0 -7 6 -24 13 -38 7 -14 32 -74 56 -135 24 -60 47 -119 51 -130 5 -11
11 -29 13 -40 3 -11 19 -67 36 -124 17 -57 30 -106 29 -110 0 -3 1 -8 2 -11 7
-20 38 -186 46 -250 3 -25 8 -61 11 -80 7 -47 12 -473 5 -484 -3 -5 -6 -39 -8
-77 -1 -37 -5 -85 -9 -106 -3 -21 -8 -60 -10 -88 -3 -27 -7 -61 -10 -75 -3
-14 -7 -45 -10 -70 -3 -25 -13 -85 -21 -135 -9 -49 -18 -99 -19 -110 -2 -11
-13 -67 -25 -125 -12 -58 -23 -116 -26 -130 -2 -14 -7 -36 -10 -50 -3 -14 -8
-36 -11 -50 -2 -14 -13 -65 -25 -115 -37 -166 -70 -320 -73 -345 -2 -14 -4
-25 -5 -25 -2 0 -4 -12 -14 -62 -3 -18 -9 -48 -12 -65 -10 -51 -12 -63 -14
-63 -1 0 -3 -9 -4 -20 -2 -11 -6 -36 -9 -55 -4 -19 -9 -48 -12 -65 -3 -16 -8
-46 -11 -65 -10 -60 -13 -74 -19 -115 -3 -22 -7 -53 -10 -70 -12 -76 -27 -215
-29 -270 -1 -16 -4 -34 -7 -40 -7 -14 -3 -486 5 -560 4 -32 9 -75 11 -95 3
-19 8 -55 11 -80 7 -66 9 -74 16 -85 4 -6 9 -29 12 -50 6 -52 17 -96 29 -125
4 -8 8 -24 10 -35 2 -11 7 -27 10 -35 3 -8 13 -40 23 -70 9 -30 19 -59 23 -65
3 -5 6 -12 7 -15 12 -54 136 -294 199 -389 28 -40 55 -81 60 -89 6 -9 15 -22
20 -29 6 -7 15 -18 20 -25 40 -52 95 -118 125 -149 19 -21 45 -48 56 -61 43
-47 151 -145 224 -203 41 -33 77 -62 80 -66 7 -7 200 -141 222 -154 10 -5 49
-29 88 -52 38 -24 74 -43 79 -43 5 0 11 -3 13 -8 6 -13 241 -128 358 -175 154
-60 154 -60 163 -59 4 1 7 -2 7 -8 0 -6 3 -9 8 -8 4 1 51 -13 104 -31 54 -18
99 -31 101 -29 1 2 16 -5 31 -16 17 -11 25 -13 20 -5 -6 11 -5 12 7 3 8 -6 34
-16 58 -23 25 -7 56 -18 70 -24 14 -5 35 -12 46 -14 11 -2 58 -16 105 -32 47
-15 105 -34 130 -41 104 -30 496 -163 506 -171 6 -5 14 -6 17 -2 4 3 7 1 7 -5
0 -7 3 -11 8 -10 4 0 15 -2 25 -5 9 -4 25 -10 35 -14 9 -3 20 -5 25 -5 4 1 7
-2 7 -8 0 -5 5 -10 11 -10 22 0 193 -93 247 -135 7 -5 37 -33 66 -62 l52 -52
51 53 c28 30 65 62 82 72 17 10 31 22 31 26 0 4 9 8 20 8 11 0 20 4 20 8 0 4
26 20 58 36 31 16 64 32 72 37 8 5 22 12 30 15 16 6 88 36 137 56 15 6 34 12
41 14 8 1 21 6 30 10 9 4 19 8 22 9 3 1 14 5 25 9 18 7 36 13 88 30 9 3 19 6
22 6 3 0 35 11 72 24 38 14 129 43 203 66 74 23 146 46 160 51 14 5 34 11 45
13 11 2 63 18 115 36 98 33 126 41 148 42 6 1 12 5 12 10 0 5 6 8 13 6 6 -1
22 3 35 10 12 7 22 10 22 6 0 -3 7 -1 15 6 8 7 15 9 15 5 0 -4 6 -2 13 4 8 6
17 8 20 4 4 -3 7 -2 7 4 0 5 7 10 15 11 8 1 22 3 30 4 8 1 15 5 15 10 0 4 3 7
8 6 9 -3 76 20 127 43 22 10 69 30 105 44 36 15 101 46 145 68 44 23 83 41 88
39 4 -1 7 2 7 6 0 5 23 19 50 32 28 13 50 27 50 32 0 4 3 7 8 6 4 -2 39 17 77
42 39 25 75 47 80 50 13 6 66 42 85 57 8 6 55 41 104 78 48 37 102 79 120 93
50 43 286 278 286 286 0 4 9 17 20 29 61 68 190 249 190 267 0 5 6 15 13 22
34 37 167 328 186 410 1 4 8 23 16 42 8 18 11 36 8 40 -4 3 -1 6 6 6 7 0 9 5
6 10 -3 6 -3 16 2 23 8 12 12 28 15 60 1 9 5 17 8 17 3 0 6 10 6 23 1 12 4 36
8 52 3 17 9 46 12 65 3 19 8 44 10 55 13 75 25 224 29 353 2 59 4 109 5 112 1
3 1 10 0 15 -1 6 -4 46 -5 90 -5 113 -15 266 -20 290 -3 11 -7 47 -10 80 -2
33 -6 69 -9 80 -2 11 -7 45 -11 75 -4 30 -9 62 -10 71 -14 76 -18 97 -21 119
-1 14 -3 27 -4 30 -1 3 -3 10 -4 15 -1 6 -5 26 -9 45 -4 19 -9 46 -11 60 -2
14 -11 59 -20 100 -9 41 -18 86 -20 100 -3 14 -5 25 -6 25 -1 0 -3 9 -5 20 -2
11 -7 36 -10 55 -4 19 -9 46 -11 60 -3 14 -7 32 -11 40 -3 8 -7 24 -9 35 -6
37 -12 70 -34 165 -47 209 -116 579 -135 723 -2 15 -7 45 -10 67 -3 22 -8 65
-10 97 -3 32 -8 90 -12 128 -9 91 -10 452 -1 530 12 102 30 221 42 275 3 14
10 45 15 70 20 92 39 158 80 275 23 66 43 125 45 130 1 6 12 31 23 57 12 26
34 76 49 110 24 55 91 187 150 298 11 19 22 37 27 38 4 2 7 7 7 12 0 4 18 37
40 71 22 35 48 79 57 97 9 17 20 32 25 32 4 0 8 7 8 15 0 8 4 15 9 15 5 0 12
11 15 25 5 19 -2 38 -26 73 -17 26 -35 49 -40 50 -4 2 -8 8 -8 13 0 8 -83 136
-113 174 -27 34 -127 189 -127 195 0 5 -4 10 -8 12 -10 4 -72 96 -72 108 0 4
-4 10 -8 12 -5 2 -60 80 -122 173 -63 94 -119 173 -124 177 -6 4 -7 8 -3 8 4
0 -1 10 -13 22 -11 12 -20 25 -20 29 0 4 -7 15 -16 23 -14 14 -19 13 -55 -10
-78 -49 -434 -216 -434 -203 0 1 -31 -8 -68 -20 -38 -13 -71 -20 -74 -17 -3 3
-11 2 -17 -3 -7 -6 -25 -12 -41 -15 -34 -7 -112 -18 -135 -20 -9 -1 -21 -5
-28 -10 -6 -4 -12 -3 -12 3 0 6 -9 8 -22 3 -25 -8 -233 -1 -233 8 0 1 -9 3
-20 4 -11 2 -36 7 -55 11 -19 5 -38 10 -42 11 -5 1 -9 2 -10 3 -2 2 -13 4 -26
7 -12 2 -56 20 -97 39 -142 68 -259 159 -387 304 -26 29 -52 50 -57 46 -6 -3
-11 -2 -11 4 0 6 -9 8 -22 3 -27 -9 -218 -8 -242 1 -9 4 -16 3 -16 -1 0 -4
-46 -6 -102 -4 -119 2 -103 3 -281 -1 -75 -1 -137 2 -137 6 0 5 -5 5 -12 1
-16 -10 -308 -11 -308 -1 0 5 -5 5 -12 1 -16 -10 -308 -11 -308 -1 0 5 -5 5
-12 1 -16 -10 -308 -11 -308 -1 0 5 -5 5 -12 1 -16 -10 -308 -11 -308 -1 0 5
-5 5 -12 1 -16 -10 -307 -11 -311 -1 -1 5 -6 5 -10 1z"/>
</g>
</svg>
